<svg width="1920" height="1080" viewBox="0 0 1920 1080" fill="none" xmlns="http://www.w3.org/2000/svg">
<g clip-path="url(#clip0_16_3)">
<rect width="1920" height="1080" fill="white"/>
<path d="M991.661 803.752L1006.43 694L1416.95 862.258L991.661 803.752Z" fill="#FD0000"/>
<path d="M278 491.5L291.331 36L834.991 526.647L278 491.5Z" fill="#FD0000"/>
<path d="M1249.93 451.792L1096.27 483.426L1226.03 716.689L1249.93 451.792Z" fill="black"/>
<path d="M1020.9 808V799.6C1020.9 797.8 1021 795.867 1021.2 793.8C1021.4 791.667 1021.9 789.5 1022.7 787.3C1023.5 785.1 1024.67 782.933 1026.2 780.8C1027.73 778.6 1029.87 776.533 1032.6 774.6C1035.33 772.6 1038.7 770.767 1042.7 769.1C1046.77 767.433 1051.67 766 1057.4 764.8L1074.8 761.2C1077.33 760.733 1079.33 760.267 1080.8 759.8C1082.27 759.267 1083.37 758.767 1084.1 758.3C1084.83 757.767 1085.3 757.233 1085.5 756.7C1085.7 756.167 1085.8 755.6 1085.8 755C1085.8 754.267 1085.6 753.567 1085.2 752.9C1084.8 752.233 1083.93 751.633 1082.6 751.1C1081.27 750.567 1079.37 750.167 1076.9 749.9C1074.43 749.567 1071.17 749.4 1067.1 749.4C1062.43 749.4 1058.73 749.767 1056 750.5C1053.33 751.233 1051.3 752.167 1049.9 753.3C1048.5 754.367 1047.6 755.5 1047.2 756.7C1046.8 757.9 1046.57 758.967 1046.5 759.9H1022.2V759.1C1022.2 757.7 1022.33 756.067 1022.6 754.2C1022.93 752.267 1023.57 750.333 1024.5 748.4C1025.5 746.4 1026.93 744.433 1028.8 742.5C1030.67 740.567 1033.17 738.867 1036.3 737.4C1039.43 735.867 1043.27 734.633 1047.8 733.7C1052.4 732.767 1057.9 732.3 1064.3 732.3H1068.3C1077.03 732.3 1084.13 732.933 1089.6 734.2C1095.13 735.467 1099.43 737.167 1102.5 739.3C1105.57 741.433 1107.63 743.9 1108.7 746.7C1109.83 749.433 1110.4 752.267 1110.4 755.2V755.4C1110.4 758.2 1110.03 760.767 1109.3 763.1C1108.63 765.367 1107.27 767.433 1105.2 769.3C1103.13 771.1 1100.2 772.7 1096.4 774.1C1092.67 775.5 1087.77 776.7 1081.7 777.7L1061.3 781.1C1056.9 781.9 1053.4 782.733 1050.8 783.6C1048.2 784.467 1046.23 785.333 1044.9 786.2C1043.57 787 1042.7 787.8 1042.3 788.6C1041.9 789.333 1041.7 789.933 1041.7 790.4H1088.8V780.8H1111.7V808H1020.9ZM1222.08 772.1C1222.08 774.233 1221.85 776.667 1221.38 779.4C1220.98 782.067 1220.15 784.8 1218.88 787.6C1217.62 790.333 1215.82 793 1213.48 795.6C1211.22 798.2 1208.22 800.533 1204.48 802.6C1200.82 804.6 1196.28 806.233 1190.88 807.5C1185.55 808.7 1179.22 809.3 1171.88 809.3H1167.48C1160.15 809.3 1153.82 808.7 1148.48 807.5C1143.15 806.233 1138.62 804.6 1134.88 802.6C1131.22 800.533 1128.22 798.2 1125.88 795.6C1123.55 793 1121.75 790.333 1120.48 787.6C1119.22 784.8 1118.35 782.067 1117.88 779.4C1117.48 776.733 1117.28 774.3 1117.28 772.1V769.1C1117.28 766.9 1117.48 764.467 1117.88 761.8C1118.35 759.133 1119.22 756.433 1120.48 753.7C1121.75 750.967 1123.55 748.333 1125.88 745.8C1128.22 743.2 1131.22 740.9 1134.88 738.9C1138.62 736.9 1143.15 735.3 1148.48 734.1C1153.82 732.9 1160.15 732.3 1167.48 732.3H1171.88C1179.22 732.3 1185.55 732.9 1190.88 734.1C1196.22 735.3 1200.75 736.9 1204.48 738.9C1208.22 740.9 1211.22 743.2 1213.48 745.8C1215.82 748.333 1217.62 750.967 1218.88 753.7C1220.15 756.433 1220.98 759.133 1221.38 761.8C1221.85 764.467 1222.08 766.9 1222.08 769.1V772.1ZM1197.68 769.8C1197.68 767.667 1197.28 765.467 1196.48 763.2C1195.75 760.933 1194.32 758.867 1192.18 757C1190.12 755.067 1187.25 753.5 1183.58 752.3C1179.98 751.033 1175.35 750.4 1169.68 750.4C1163.88 750.4 1159.15 751.033 1155.48 752.3C1151.88 753.5 1149.05 755.067 1146.98 757C1144.92 758.867 1143.52 760.933 1142.78 763.2C1142.05 765.467 1141.68 767.667 1141.68 769.8V771C1141.68 773.133 1142.08 775.367 1142.88 777.7C1143.68 780.033 1145.12 782.2 1147.18 784.2C1149.25 786.2 1152.08 787.867 1155.68 789.2C1159.35 790.467 1164.02 791.1 1169.68 791.1C1175.35 791.1 1179.98 790.467 1183.58 789.2C1187.25 787.933 1190.12 786.333 1192.18 784.4C1194.25 782.4 1195.68 780.233 1196.48 777.9C1197.28 775.567 1197.68 773.333 1197.68 771.2V769.8ZM1332.24 772.1C1332.24 774.233 1332 776.667 1331.54 779.4C1331.14 782.067 1330.3 784.8 1329.04 787.6C1327.77 790.333 1325.97 793 1323.64 795.6C1321.37 798.2 1318.37 800.533 1314.64 802.6C1310.97 804.6 1306.44 806.233 1301.04 807.5C1295.7 808.7 1289.37 809.3 1282.04 809.3H1277.64C1270.3 809.3 1263.97 808.7 1258.64 807.5C1253.3 806.233 1248.77 804.6 1245.04 802.6C1241.37 800.533 1238.37 798.2 1236.04 795.6C1233.7 793 1231.9 790.333 1230.64 787.6C1229.37 784.8 1228.5 782.067 1228.04 779.4C1227.64 776.733 1227.44 774.3 1227.44 772.1V769.1C1227.44 766.9 1227.64 764.467 1228.04 761.8C1228.5 759.133 1229.37 756.433 1230.64 753.7C1231.9 750.967 1233.7 748.333 1236.04 745.8C1238.37 743.2 1241.37 740.9 1245.04 738.9C1248.77 736.9 1253.3 735.3 1258.64 734.1C1263.97 732.9 1270.3 732.3 1277.64 732.3H1282.04C1289.37 732.3 1295.7 732.9 1301.04 734.1C1306.37 735.3 1310.9 736.9 1314.64 738.9C1318.37 740.9 1321.37 743.2 1323.64 745.8C1325.97 748.333 1327.77 750.967 1329.04 753.7C1330.3 756.433 1331.14 759.133 1331.54 761.8C1332 764.467 1332.24 766.9 1332.24 769.1V772.1ZM1307.84 769.8C1307.84 767.667 1307.44 765.467 1306.64 763.2C1305.9 760.933 1304.47 758.867 1302.34 757C1300.27 755.067 1297.4 753.5 1293.74 752.3C1290.14 751.033 1285.5 750.4 1279.84 750.4C1274.04 750.4 1269.3 751.033 1265.64 752.3C1262.04 753.5 1259.2 755.067 1257.14 757C1255.07 758.867 1253.67 760.933 1252.94 763.2C1252.2 765.467 1251.84 767.667 1251.84 769.8V771C1251.84 773.133 1252.24 775.367 1253.04 777.7C1253.84 780.033 1255.27 782.2 1257.34 784.2C1259.4 786.2 1262.24 787.867 1265.84 789.2C1269.5 790.467 1274.17 791.1 1279.84 791.1C1285.5 791.1 1290.14 790.467 1293.74 789.2C1297.4 787.933 1300.27 786.333 1302.34 784.4C1304.4 782.4 1305.84 780.233 1306.64 777.9C1307.44 775.567 1307.84 773.333 1307.84 771.2V769.8ZM1442.39 772.1C1442.39 774.233 1442.16 776.667 1441.69 779.4C1441.29 782.067 1440.46 784.8 1439.19 787.6C1437.93 790.333 1436.13 793 1433.79 795.6C1431.53 798.2 1428.53 800.533 1424.79 802.6C1421.13 804.6 1416.59 806.233 1411.19 807.5C1405.86 808.7 1399.53 809.3 1392.19 809.3H1387.79C1380.46 809.3 1374.13 808.7 1368.79 807.5C1363.46 806.233 1358.93 804.6 1355.19 802.6C1351.53 800.533 1348.53 798.2 1346.19 795.6C1343.86 793 1342.06 790.333 1340.79 787.6C1339.53 784.8 1338.66 782.067 1338.19 779.4C1337.79 776.733 1337.59 774.3 1337.59 772.1V769.1C1337.59 766.9 1337.79 764.467 1338.19 761.8C1338.66 759.133 1339.53 756.433 1340.79 753.7C1342.06 750.967 1343.86 748.333 1346.19 745.8C1348.53 743.2 1351.53 740.9 1355.19 738.9C1358.93 736.9 1363.46 735.3 1368.79 734.1C1374.13 732.9 1380.46 732.3 1387.79 732.3H1392.19C1399.53 732.3 1405.86 732.9 1411.19 734.1C1416.53 735.3 1421.06 736.9 1424.79 738.9C1428.53 740.9 1431.53 743.2 1433.79 745.8C1436.13 748.333 1437.93 750.967 1439.19 753.7C1440.46 756.433 1441.29 759.133 1441.69 761.8C1442.16 764.467 1442.39 766.9 1442.39 769.1V772.1ZM1417.99 769.8C1417.99 767.667 1417.59 765.467 1416.79 763.2C1416.06 760.933 1414.63 758.867 1412.49 757C1410.43 755.067 1407.56 753.5 1403.89 752.3C1400.29 751.033 1395.66 750.4 1389.99 750.4C1384.19 750.4 1379.46 751.033 1375.79 752.3C1372.19 753.5 1369.36 755.067 1367.29 757C1365.23 758.867 1363.83 760.933 1363.09 763.2C1362.36 765.467 1361.99 767.667 1361.99 769.8V771C1361.99 773.133 1362.39 775.367 1363.19 777.7C1363.99 780.033 1365.43 782.2 1367.49 784.2C1369.56 786.2 1372.39 787.867 1375.99 789.2C1379.66 790.467 1384.33 791.1 1389.99 791.1C1395.66 791.1 1400.29 790.467 1403.89 789.2C1407.56 787.933 1410.43 786.333 1412.49 784.4C1414.56 782.4 1415.99 780.233 1416.79 777.9C1417.59 775.567 1417.99 773.333 1417.99 771.2V769.8ZM1552.55 772.1C1552.55 774.233 1552.32 776.667 1551.85 779.4C1551.45 782.067 1550.62 784.8 1549.35 787.6C1548.08 790.333 1546.28 793 1543.95 795.6C1541.68 798.2 1538.68 800.533 1534.95 802.6C1531.28 804.6 1526.75 806.233 1521.35 807.5C1516.02 808.7 1509.68 809.3 1502.35 809.3H1497.95C1490.62 809.3 1484.28 808.7 1478.95 807.5C1473.62 806.233 1469.08 804.6 1465.35 802.6C1461.68 800.533 1458.68 798.2 1456.35 795.6C1454.02 793 1452.22 790.333 1450.95 787.6C1449.68 784.8 1448.82 782.067 1448.35 779.4C1447.95 776.733 1447.75 774.3 1447.75 772.1V769.1C1447.75 766.9 1447.95 764.467 1448.35 761.8C1448.82 759.133 1449.68 756.433 1450.95 753.7C1452.22 750.967 1454.02 748.333 1456.35 745.8C1458.68 743.2 1461.68 740.9 1465.35 738.9C1469.08 736.9 1473.62 735.3 1478.95 734.1C1484.28 732.9 1490.62 732.3 1497.95 732.3H1502.35C1509.68 732.3 1516.02 732.9 1521.35 734.1C1526.68 735.3 1531.22 736.9 1534.95 738.9C1538.68 740.9 1541.68 743.2 1543.95 745.8C1546.28 748.333 1548.08 750.967 1549.35 753.7C1550.62 756.433 1551.45 759.133 1551.85 761.8C1552.32 764.467 1552.55 766.9 1552.55 769.1V772.1ZM1528.15 769.8C1528.15 767.667 1527.75 765.467 1526.95 763.2C1526.22 760.933 1524.78 758.867 1522.65 757C1520.58 755.067 1517.72 753.5 1514.05 752.3C1510.45 751.033 1505.82 750.4 1500.15 750.4C1494.35 750.4 1489.62 751.033 1485.95 752.3C1482.35 753.5 1479.52 755.067 1477.45 757C1475.38 758.867 1473.98 760.933 1473.25 763.2C1472.52 765.467 1472.15 767.667 1472.15 769.8V771C1472.15 773.133 1472.55 775.367 1473.35 777.7C1474.15 780.033 1475.58 782.2 1477.65 784.2C1479.72 786.2 1482.55 787.867 1486.15 789.2C1489.82 790.467 1494.48 791.1 1500.15 791.1C1505.82 791.1 1510.45 790.467 1514.05 789.2C1517.72 787.933 1520.58 786.333 1522.65 784.4C1524.72 782.4 1526.15 780.233 1526.95 777.9C1527.75 775.567 1528.15 773.333 1528.15 771.2V769.8ZM1612.97 781.1C1612.97 782.767 1613.37 784.433 1614.17 786.1C1614.97 787.767 1616.17 789.267 1617.77 790.6C1619.44 791.933 1621.5 793.033 1623.97 793.9C1626.5 794.7 1629.47 795.1 1632.87 795.1H1633.37C1636.97 795.1 1639.94 794.7 1642.27 793.9C1644.67 793.033 1646.57 791.933 1647.97 790.6C1649.37 789.2 1650.34 787.667 1650.87 786C1651.47 784.333 1651.77 782.7 1651.77 781.1V780.7C1651.77 778.967 1651.47 777.267 1650.87 775.6C1650.34 773.933 1649.37 772.467 1647.97 771.2C1646.57 769.867 1644.67 768.8 1642.27 768C1639.94 767.2 1636.97 766.8 1633.37 766.8H1632.87C1629.4 766.8 1626.4 767.2 1623.87 768C1621.4 768.8 1619.34 769.867 1617.67 771.2C1616.07 772.467 1614.87 773.933 1614.07 775.6C1613.34 777.267 1612.97 778.967 1612.97 780.7V781.1ZM1612.97 754.2V761.9C1613.57 761.367 1614.54 760.6 1615.87 759.6C1617.27 758.6 1619.1 757.6 1621.37 756.6C1623.64 755.6 1626.34 754.733 1629.47 754C1632.6 753.267 1636.2 752.9 1640.27 752.9H1642.07C1648.14 752.9 1653.24 753.633 1657.37 755.1C1661.57 756.5 1664.94 758.433 1667.47 760.9C1670 763.3 1671.8 766.167 1672.87 769.5C1674 772.767 1674.57 776.233 1674.57 779.9V781.8C1674.57 785.333 1674 788.767 1672.87 792.1C1671.74 795.367 1669.87 798.3 1667.27 800.9C1664.67 803.433 1661.24 805.467 1656.97 807C1652.77 808.533 1647.57 809.3 1641.37 809.3H1639.77C1635.77 809.3 1632.2 808.933 1629.07 808.2C1625.94 807.467 1623.24 806.6 1620.97 805.6C1618.77 804.6 1617 803.633 1615.67 802.7C1614.34 801.7 1613.44 800.933 1612.97 800.4V826.8H1590.67V754.2H1612.97ZM1684.88 810.8H1697.48C1698.55 810.8 1699.25 810.633 1699.58 810.3C1699.91 810.033 1700.08 809.633 1700.08 809.1C1700.08 808.567 1699.85 807.867 1699.38 807C1698.98 806.133 1698.38 804.933 1697.58 803.4L1671.88 754.2H1695.88L1713.18 790.6L1729.98 754.2H1752.38L1724.18 811.6C1722.91 814.133 1721.61 816.333 1720.28 818.2C1719.01 820.133 1717.58 821.733 1715.98 823C1714.45 824.267 1712.71 825.2 1710.78 825.8C1708.91 826.467 1706.78 826.8 1704.38 826.8H1684.88V810.8ZM1834.21 783.5C1834.21 788.833 1832.98 793.2 1830.51 796.6C1828.11 799.933 1824.98 802.567 1821.11 804.5C1817.31 806.367 1813.05 807.667 1808.31 808.4C1803.65 809.133 1799.01 809.5 1794.41 809.5H1792.41C1787.61 809.5 1782.81 809.067 1778.01 808.2C1773.28 807.4 1769.01 805.833 1765.21 803.5C1761.48 801.167 1758.45 797.933 1756.11 793.8C1753.78 789.667 1752.61 784.3 1752.61 777.7V770.7C1752.61 765.3 1753.25 760.4 1754.51 756C1755.78 751.533 1757.98 747.733 1761.11 744.6C1764.31 741.4 1768.55 738.967 1773.81 737.3C1779.15 735.567 1785.81 734.7 1793.81 734.7H1805.91C1807.25 734.7 1808.25 734.6 1808.91 734.4C1809.65 734.133 1810.18 733.833 1810.51 733.5C1810.91 733.167 1811.15 732.767 1811.21 732.3H1832.81C1832.81 735.433 1832.41 738.167 1831.61 740.5C1830.88 742.767 1829.61 744.667 1827.81 746.2C1826.01 747.667 1823.61 748.767 1820.61 749.5C1817.68 750.233 1813.98 750.6 1809.51 750.6H1795.91C1791.78 750.6 1788.28 750.933 1785.41 751.6C1782.55 752.2 1780.21 753.133 1778.41 754.4C1776.68 755.667 1775.41 757.267 1774.61 759.2C1773.81 761.133 1773.41 763.433 1773.41 766.1V766.6C1774.21 765.533 1775.41 764.433 1777.01 763.3C1778.61 762.1 1780.58 761.033 1782.91 760.1C1785.31 759.1 1788.08 758.3 1791.21 757.7C1794.35 757.033 1797.88 756.7 1801.81 756.7H1802.41C1804.35 756.7 1806.48 756.833 1808.81 757.1C1811.15 757.367 1813.48 757.833 1815.81 758.5C1818.15 759.167 1820.41 760.1 1822.61 761.3C1824.88 762.5 1826.85 764 1828.51 765.8C1830.25 767.6 1831.61 769.8 1832.61 772.4C1833.68 774.933 1834.21 777.933 1834.21 781.4V783.5ZM1793.41 795C1799.48 795 1803.98 793.867 1806.91 791.6C1809.91 789.267 1811.41 786.5 1811.41 783.3V782.2C1811.41 778.667 1809.91 775.933 1806.91 774C1803.91 772 1799.41 771 1793.41 771C1787.48 771 1782.98 771.967 1779.91 773.9C1776.91 775.833 1775.41 778.6 1775.41 782.2V783.3C1775.41 786.633 1776.91 789.433 1779.91 791.7C1782.91 793.9 1787.41 795 1793.41 795Z" fill="black"/>
<path d="M201.141 218.121L231.159 117.692L770.074 138.244L725.193 237.513L456.77 232.191L201.141 218.121Z" fill="black"/>
<path d="M199.457 346.305L182.796 254.868L945.737 256.327L987.552 364.903L199.457 346.305Z" fill="black"/>
<path d="M486.172 489.248L459.934 387.297L895.765 387.078L802.043 508.845L486.172 489.248Z" fill="black"/>
<path d="M240.563 200.607L272.713 170.112L243.387 138.171L269.58 139.074L286.579 157.982L304.839 140.289L328.849 141.116L297.828 170.557L327.368 203.598L302.77 202.751L284.298 182.698L264.657 201.437L240.563 200.607ZM368.276 183.492L350.299 185.646C347.879 185.954 346.128 186.37 345.045 186.893C343.962 187.416 343.399 188.322 343.354 189.609L343.351 189.693C343.33 190.308 343.421 190.928 343.624 191.551C343.882 192.176 344.311 192.752 344.909 193.277C345.565 193.747 346.391 194.168 347.387 194.539C348.441 194.855 349.779 195.041 351.402 195.097C353.921 195.184 356.198 194.954 358.234 194.408C360.27 193.862 362.005 193.109 363.439 192.15C364.929 191.193 366.088 190.084 366.915 188.824C367.743 187.564 368.18 186.262 368.227 184.919L368.276 183.492ZM368.253 198.788C367.728 199.386 366.948 200.06 365.914 200.808C364.88 201.557 363.509 202.295 361.803 203.02C360.155 203.692 358.119 204.238 355.695 204.659C353.327 205.081 350.464 205.235 347.106 205.119L346.015 205.082C342.209 204.95 338.977 204.447 336.317 203.571C333.716 202.641 331.599 201.475 329.966 200.074C328.335 198.617 327.158 197.007 326.434 195.245C325.768 193.429 325.469 191.542 325.537 189.583L325.557 188.995C325.7 184.854 327.263 181.77 330.246 179.743C333.286 177.719 338.202 176.516 344.996 176.133L365.714 174.914C366.781 174.839 367.516 174.64 367.92 174.318C368.381 173.942 368.624 173.39 368.649 172.662C368.663 172.27 368.565 171.847 368.357 171.391C368.204 170.938 367.742 170.529 366.97 170.167C366.2 169.748 365.035 169.4 363.476 169.122C361.917 168.844 359.766 168.658 357.023 168.563L356.604 168.549C353.805 168.452 351.616 168.573 350.035 168.911C348.455 169.248 347.263 169.684 346.46 170.216C345.715 170.695 345.221 171.21 344.978 171.762C344.791 172.316 344.663 172.788 344.593 173.178L327.215 172.579L327.221 172.411C327.256 171.403 327.377 170.343 327.583 169.229C327.791 168.06 328.195 166.925 328.793 165.825C329.447 164.727 330.379 163.694 331.589 162.728C332.801 161.705 334.4 160.835 336.386 160.119C338.43 159.349 340.942 158.791 343.924 158.446C346.908 158.044 350.498 157.916 354.696 158.061L359.313 158.22C365.861 158.446 370.967 159.07 374.63 160.093C378.349 161.117 381.106 162.389 382.903 163.908C384.702 165.371 385.795 166.977 386.183 168.728C386.571 170.478 386.737 172.165 386.681 173.788L386.085 191.082C386.062 191.753 386.183 192.318 386.447 192.775C386.769 193.178 387.406 193.396 388.358 193.429L390.792 193.513L390.37 205.77L375.175 205.246C373.384 205.184 371.834 204.627 370.526 203.573C369.273 202.521 368.515 200.926 368.253 198.788ZM413.494 185.806L412.78 206.542L394.059 205.897L395.615 160.732L414.336 161.377L413.714 179.426L432.638 162.008L453.373 162.722L431.347 182.387L454.419 207.977L432.424 207.219L413.494 185.806ZM494.529 187.843L476.552 189.997C474.132 190.306 472.381 190.722 471.298 191.245C470.215 191.768 469.652 192.673 469.608 193.96L469.605 194.044C469.583 194.66 469.674 195.279 469.877 195.903C470.135 196.528 470.564 197.103 471.162 197.628C471.818 198.099 472.644 198.519 473.64 198.89C474.694 199.206 476.032 199.393 477.655 199.449C480.174 199.535 482.451 199.306 484.487 198.76C486.523 198.213 488.258 197.461 489.692 196.501C491.182 195.544 492.341 194.435 493.169 193.175C493.996 191.915 494.434 190.613 494.48 189.27L494.529 187.843ZM494.506 203.139C493.981 203.738 493.202 204.411 492.167 205.16C491.133 205.909 489.763 206.646 488.057 207.372C486.408 208.043 484.372 208.589 481.948 209.01C479.581 209.433 476.718 209.586 473.36 209.471L472.268 209.433C468.462 209.302 465.23 208.798 462.57 207.922C459.969 206.992 457.852 205.826 456.219 204.425C454.588 202.968 453.411 201.359 452.687 199.597C452.022 197.781 451.722 195.893 451.79 193.934L451.81 193.347C451.953 189.205 453.516 186.121 456.5 184.095C459.539 182.07 464.456 180.867 471.249 180.485L491.967 179.266C493.034 179.19 493.77 178.992 494.173 178.669C494.634 178.293 494.877 177.741 494.902 177.013C494.916 176.622 494.818 176.198 494.61 175.743C494.457 175.289 493.995 174.881 493.223 174.518C492.453 174.099 491.289 173.751 489.729 173.473C488.17 173.195 486.019 173.009 483.277 172.914L482.857 172.9C480.059 172.804 477.869 172.924 476.288 173.262C474.708 173.6 473.516 174.035 472.713 174.568C471.968 175.046 471.474 175.562 471.231 176.113C471.044 176.667 470.916 177.139 470.846 177.529L453.469 176.93L453.474 176.762C453.509 175.755 453.63 174.694 453.836 173.581C454.045 172.411 454.448 171.277 455.046 170.176C455.7 169.078 456.632 168.046 457.843 167.079C459.054 166.056 460.653 165.187 462.639 164.471C464.683 163.701 467.196 163.143 470.177 162.797C473.161 162.396 476.751 162.267 480.949 162.412L485.566 162.571C492.114 162.797 497.22 163.421 500.883 164.444C504.602 165.469 507.36 166.74 509.156 168.259C510.955 169.722 512.048 171.329 512.436 173.079C512.824 174.829 512.99 176.516 512.934 178.139L512.338 195.433C512.315 196.104 512.436 196.669 512.7 197.126C513.022 197.53 513.659 197.748 514.611 197.781L517.045 197.864L516.623 210.121L501.428 209.597C499.637 209.536 498.087 208.978 496.779 207.924C495.526 206.873 494.769 205.278 494.506 203.139ZM536.193 178.016L517.304 177.365L517.732 164.941L574.231 166.888L573.802 179.312L554.914 178.661L553.785 211.402L535.064 210.757L536.193 178.016ZM607.396 214.51C600.848 214.285 595.501 213.372 591.353 211.772C587.206 210.172 583.94 208.211 581.554 205.887C579.227 203.51 577.634 200.933 576.778 198.158C575.977 195.385 575.621 192.683 575.712 190.053L575.764 188.542C575.853 185.967 576.391 183.352 577.379 180.696C578.425 177.987 580.189 175.582 582.671 173.482C585.155 171.327 588.519 169.622 592.765 168.367C597.011 167.113 602.408 166.598 608.956 166.824L614.916 167.029C621.8 167.267 627.316 168.185 631.463 169.785C635.669 171.331 638.88 173.262 641.097 175.58C643.373 177.844 644.856 180.332 645.547 183.046C646.238 185.759 646.539 188.403 646.45 190.978L646.398 192.489C646.307 195.119 645.823 197.792 644.945 200.508C644.123 203.225 642.525 205.691 640.151 207.907C637.78 210.066 634.442 211.8 630.138 213.109C625.891 214.419 620.269 214.954 613.273 214.713L607.396 214.51ZM610.754 202.439C613.944 202.549 616.587 202.276 618.683 201.62C620.835 200.965 622.546 200.1 623.816 199.023C625.086 197.946 625.995 196.745 626.545 195.419C627.097 194.037 627.396 192.674 627.443 191.331L627.457 190.911C627.505 189.512 627.301 188.132 626.843 186.772C626.388 185.355 625.563 184.094 624.368 182.988C623.174 181.883 621.525 180.957 619.421 180.212C617.373 179.469 614.782 179.044 611.648 178.936L611.564 178.933C608.374 178.823 605.704 179.067 603.554 179.665C601.462 180.21 599.781 181.02 598.512 182.097C597.244 183.118 596.334 184.32 595.782 185.701C595.232 187.027 594.933 188.39 594.885 189.789L594.87 190.209C594.824 191.552 595.028 192.932 595.484 194.348C595.941 195.709 596.766 196.97 597.959 198.132C599.152 199.293 600.771 200.274 602.817 201.073C604.918 201.874 607.564 202.329 610.754 202.439ZM650.664 214.741L652.221 169.576L670.942 170.221L670.375 186.675L695.728 187.549L696.295 171.095L715.016 171.74L713.459 216.905L694.738 216.26L695.3 199.974L669.947 199.1L669.385 215.386L650.664 214.741Z" fill="white"/>
<path d="M238.324 302.158L245.124 302.392C245.79 300.958 246.348 299.381 246.8 297.659C247.307 295.94 247.744 293.825 248.111 291.316C248.478 288.808 248.805 285.821 249.092 282.357C249.38 278.893 249.664 274.7 249.946 269.779L306.612 271.732L305.484 304.473L314.719 304.791L313.943 327.289L296.062 326.673L296.409 316.599L255.693 315.196L255.346 325.27L237.548 324.656L238.324 302.158ZM286.763 303.827L287.478 283.092L266.574 282.371C266.242 287.123 265.797 291.114 265.237 294.344C264.733 297.577 263.961 300.464 262.921 303.006L286.763 303.827ZM319.954 272.192L338.675 272.837L337.694 301.296L367.05 273.815L386.191 274.475L384.634 319.64L365.913 318.995L366.894 290.536L337.538 318.017L318.397 317.357L319.954 272.192ZM454.32 309.518C454.256 311.365 453.636 313.109 452.459 314.749C451.338 316.392 449.551 317.815 447.101 319.019C444.707 320.169 441.624 321.044 437.849 321.642C434.13 322.242 429.64 322.452 424.379 322.27L422.448 322.204C417.635 322.038 413.227 321.494 409.225 320.571C405.22 319.705 401.789 318.466 398.93 316.855C396.13 315.189 393.958 313.181 392.414 310.831C390.87 308.48 390.151 305.766 390.257 302.687L390.272 302.268L409.496 302.93C409.404 305.617 410.457 307.586 412.655 308.839C414.909 310.093 418.415 310.802 423.172 310.966C426.977 311.097 429.9 310.834 431.94 310.176C434.038 309.464 435.112 308.38 435.162 306.925L435.174 306.589C435.203 305.749 434.974 305.069 434.487 304.548C434.001 304.027 433.342 303.64 432.51 303.387C431.68 303.079 430.707 302.877 429.589 302.782C428.53 302.634 427.412 302.539 426.237 302.499L412.553 302.027L412.895 292.121L427.418 292.622C431.56 292.764 433.669 291.716 433.746 289.478L433.755 289.226C433.805 287.771 432.832 286.728 430.837 286.099C428.897 285.472 426.276 285.102 422.974 284.988C420.456 284.901 418.379 284.998 416.745 285.278C415.112 285.501 413.811 285.849 412.843 286.32C411.874 286.791 411.182 287.355 410.767 288.013C410.352 288.671 410.077 289.334 409.942 290.002L390.717 289.339L390.741 288.668C390.829 286.093 391.634 283.88 393.155 282.027C394.675 280.174 396.828 278.68 399.613 277.543C402.456 276.352 405.902 275.518 409.953 275.041C414.006 274.509 418.579 274.33 423.672 274.506L425.015 274.552C429.436 274.704 433.373 275.092 436.826 275.716C440.335 276.341 443.276 277.171 445.65 278.205C448.079 279.241 449.914 280.481 451.153 281.925C452.448 283.37 453.063 285.016 453 286.863L452.971 287.703C452.884 290.221 451.829 292.37 449.807 294.15C447.784 295.929 444.471 296.963 439.866 297.253C444.552 297.863 448.147 299.219 450.652 301.323C453.213 303.428 454.445 305.88 454.349 308.679L454.32 309.518ZM499.702 302.089L481.726 304.243C479.305 304.552 477.554 304.968 476.471 305.491C475.389 306.014 474.825 306.919 474.781 308.206L474.778 308.29C474.757 308.906 474.847 309.525 475.05 310.149C475.309 310.774 475.737 311.349 476.335 311.874C476.992 312.345 477.818 312.765 478.813 313.136C479.867 313.452 481.206 313.639 482.829 313.695C485.347 313.781 487.624 313.552 489.66 313.006C491.696 312.459 493.431 311.707 494.865 310.747C496.355 309.79 497.514 308.681 498.342 307.421C499.17 306.161 499.607 304.859 499.653 303.516L499.702 302.089ZM499.679 317.385C499.155 317.984 498.375 318.657 497.34 319.406C496.306 320.155 494.936 320.892 493.23 321.618C491.582 322.289 489.546 322.835 487.122 323.256C484.754 323.679 481.891 323.832 478.533 323.717L477.441 323.679C473.636 323.548 470.403 323.044 467.744 322.168C465.142 321.238 463.025 320.072 461.392 318.671C459.762 317.214 458.584 315.605 457.861 313.843C457.195 312.027 456.896 310.139 456.963 308.18L456.983 307.593C457.126 303.451 458.689 300.367 461.673 298.341C464.712 296.316 469.629 295.113 476.422 294.731L497.14 293.512C498.208 293.436 498.943 293.238 499.346 292.915C499.807 292.539 500.051 291.987 500.076 291.259C500.089 290.868 499.992 290.444 499.783 289.989C499.631 289.535 499.169 289.127 498.397 288.764C497.627 288.345 496.462 287.997 494.903 287.719C493.343 287.441 491.192 287.255 488.45 287.161L488.03 287.146C485.232 287.05 483.042 287.17 481.462 287.508C479.881 287.846 478.69 288.281 477.887 288.814C477.142 289.292 476.648 289.808 476.405 290.36C476.217 290.913 476.089 291.385 476.02 291.775L458.642 291.176L458.648 291.008C458.682 290.001 458.803 288.94 459.009 287.827C459.218 286.657 459.621 285.523 460.219 284.422C460.874 283.324 461.806 282.292 463.016 281.325C464.228 280.302 465.827 279.433 467.813 278.717C469.856 277.947 472.369 277.389 475.351 277.043C478.334 276.642 481.925 276.513 486.122 276.658L490.74 276.817C497.288 277.043 502.393 277.667 506.056 278.69C509.775 279.715 512.533 280.986 514.33 282.505C516.128 283.968 517.222 285.575 517.61 287.325C517.997 289.075 518.163 290.762 518.108 292.385L517.512 309.679C517.488 310.351 517.609 310.915 517.873 311.372C518.196 311.776 518.833 311.994 519.784 312.027L522.219 312.11L521.796 324.367L506.601 323.844C504.81 323.782 503.26 323.224 501.952 322.17C500.699 321.119 499.942 319.524 499.679 317.385ZM527.042 279.329L545.763 279.974L544.782 308.433L574.138 280.952L593.279 281.612L591.722 326.777L573.001 326.132L573.982 297.673L544.626 325.154L525.485 324.494L527.042 279.329ZM559.238 276.741C555.433 276.609 552.344 275.999 549.972 274.908C547.656 273.82 545.879 272.554 544.64 271.11C543.401 269.667 542.583 268.182 542.188 266.655C541.794 265.073 541.615 263.75 541.652 262.687L541.658 262.519L555.929 263.01C555.92 263.29 555.963 263.656 556.06 264.108C556.212 264.561 556.448 265.018 556.769 265.477C557.145 265.938 557.663 266.348 558.323 266.707C558.983 267.066 559.873 267.265 560.992 267.303C562.056 267.34 562.929 267.202 563.612 266.889C564.295 266.577 564.813 266.202 565.164 265.766C565.571 265.332 565.838 264.893 565.966 264.449C566.149 264.007 566.245 263.646 566.255 263.366L580.191 263.847L580.185 264.015C580.148 265.078 579.823 266.384 579.21 267.931C578.598 269.423 577.596 270.845 576.205 272.198C574.813 273.551 572.953 274.692 570.624 275.62C568.294 276.548 565.395 276.953 561.925 276.833L559.238 276.741ZM599.106 327.032L600.662 281.867L619.383 282.512L618.816 298.966L644.169 299.84L644.736 283.386L663.457 284.031L661.9 329.196L643.18 328.551L643.741 312.264L618.388 311.391L617.827 327.677L599.106 327.032ZM702.422 294.619C697.721 294.457 694.2 295.008 691.859 296.272C689.518 297.536 687.942 299.359 687.132 301.741L717.354 302.782C716.821 300.355 715.403 298.429 713.098 297.004C710.794 295.58 707.263 294.786 702.506 294.622L702.422 294.619ZM735.563 315.849C735.511 317.36 735.086 319.111 734.289 321.101C733.55 323.036 732.058 324.862 729.814 326.578C727.571 328.237 724.386 329.613 720.258 330.703C716.132 331.737 710.711 332.139 703.995 331.908L699.21 331.743C693.165 331.534 688.122 330.716 684.081 329.288C680.096 327.862 676.909 326.043 674.519 323.831C672.132 321.564 670.454 319.041 669.485 316.262C668.518 313.427 668.086 310.526 668.188 307.56L668.252 305.713C668.352 302.803 668.924 300.021 669.968 297.367C671.07 294.659 672.833 292.283 675.257 290.237C677.737 288.193 681.014 286.597 685.088 285.449C689.162 284.3 694.249 283.831 700.349 284.042L705.47 284.218C712.074 284.446 717.393 285.385 721.427 287.037C725.516 288.691 728.64 290.732 730.797 293.16C733.011 295.589 734.459 298.273 735.143 301.21C735.828 304.091 736.123 306.903 736.029 309.646L735.922 312.752L686.475 311.048C686.944 313.697 688.382 315.876 690.788 317.584C693.195 319.292 696.973 320.235 702.122 320.412L702.206 320.415C705.284 320.521 707.783 320.355 709.703 319.917C711.623 319.479 713.126 318.97 714.21 318.391C715.297 317.756 716.019 317.137 716.376 316.533C716.791 315.875 717.031 315.407 717.096 315.129L735.566 315.765L735.563 315.849ZM759.949 309.966C759.901 311.365 760.188 312.776 760.812 314.198C761.435 315.62 762.399 316.914 763.704 318.08C765.064 319.248 766.767 320.231 768.813 321.03C770.917 321.775 773.396 322.196 776.25 322.295L776.67 322.309C779.692 322.413 782.194 322.163 784.176 321.559C786.216 320.901 787.843 320.033 789.056 318.954C790.272 317.819 791.128 316.56 791.624 315.176C792.176 313.794 792.475 312.432 792.521 311.088L792.533 310.753C792.583 309.298 792.381 307.862 791.925 306.445C791.526 305.031 790.756 303.771 789.618 302.667C788.481 301.508 786.917 300.557 784.925 299.816C782.99 299.077 780.511 298.655 777.488 298.551L777.069 298.537C774.158 298.436 771.628 298.685 769.478 299.284C767.384 299.884 765.619 300.72 764.181 301.791C762.801 302.808 761.751 304.004 761.031 305.38C760.368 306.758 760.011 308.175 759.96 309.63L759.949 309.966ZM760.727 287.383L760.504 293.847C761.023 293.417 761.857 292.801 763.005 292C764.21 291.201 765.778 290.415 767.709 289.641C769.641 288.867 771.933 288.218 774.585 287.693C777.236 287.168 780.269 286.964 783.683 287.082L785.194 287.134C790.287 287.309 794.547 288.073 797.975 289.423C801.46 290.72 804.231 292.441 806.286 294.585C808.343 296.673 809.772 299.132 810.571 301.961C811.428 304.736 811.803 307.663 811.697 310.741L811.642 312.336C811.54 315.302 810.965 318.168 809.917 320.933C808.871 323.643 807.219 326.052 804.961 328.159C802.705 330.211 799.764 331.818 796.137 332.982C792.567 334.148 788.18 334.641 782.975 334.461L781.632 334.415C778.274 334.299 775.29 333.888 772.681 333.182C770.071 332.476 767.83 331.67 765.956 330.765C764.138 329.862 762.683 328.999 761.59 328.177C760.5 327.299 759.767 326.629 759.39 326.168L758.627 348.331L739.906 347.686L742.006 286.738L760.727 287.383ZM846.548 336.821C840 336.595 834.652 335.682 830.505 334.082C826.358 332.483 823.091 330.521 820.706 328.197C818.378 325.82 816.786 323.243 815.929 320.468C815.128 317.695 814.773 314.993 814.864 312.363L814.916 310.852C815.005 308.277 815.543 305.662 816.531 303.007C817.577 300.297 819.341 297.892 821.823 295.793C824.306 293.637 827.671 291.932 831.917 290.677C836.163 289.423 841.559 288.908 848.108 289.134L854.068 289.34C860.952 289.577 866.468 290.495 870.615 292.095C874.82 293.641 878.032 295.573 880.249 297.89C882.524 300.154 884.008 302.643 884.699 305.356C885.389 308.07 885.691 310.713 885.602 313.288L885.55 314.799C885.459 317.429 884.975 320.102 884.097 322.818C883.275 325.535 881.677 328.001 879.303 330.217C876.931 332.377 873.593 334.111 869.29 335.419C865.042 336.73 859.42 337.264 852.425 337.023L846.548 336.821ZM849.906 324.749C853.096 324.859 855.739 324.586 857.835 323.93C859.987 323.276 861.697 322.41 862.967 321.333C864.237 320.256 865.147 319.055 865.697 317.729C866.249 316.347 866.548 314.985 866.594 313.641L866.609 313.222C866.657 311.822 866.452 310.443 865.995 309.082C865.54 307.666 864.715 306.404 863.52 305.299C862.325 304.193 860.676 303.267 858.573 302.523C856.525 301.78 853.934 301.354 850.8 301.246L850.716 301.243C847.526 301.133 844.856 301.377 842.706 301.976C840.614 302.52 838.933 303.331 837.663 304.407C836.395 305.428 835.485 306.63 834.934 308.012C834.384 309.337 834.084 310.7 834.036 312.099L834.022 312.519C833.975 313.862 834.18 315.242 834.635 316.658C835.093 318.019 835.918 319.28 837.111 320.442C838.303 321.604 839.923 322.584 841.968 323.383C844.07 324.184 846.716 324.639 849.906 324.749ZM889.816 337.051L891.373 291.886L924.785 293.038C929.598 293.203 933.648 293.567 936.934 294.129C940.221 294.69 942.856 295.453 944.84 296.418C946.824 297.383 948.213 298.552 949.006 299.924C949.857 301.242 950.254 302.741 950.196 304.42L950.167 305.259C950.082 307.722 949.089 309.705 947.188 311.208C945.343 312.713 942.841 313.776 939.682 314.395C941.237 314.785 942.732 315.313 944.166 315.979C945.658 316.591 946.948 317.363 948.037 318.297C949.181 319.233 950.068 320.329 950.697 321.583C951.328 322.781 951.618 324.108 951.568 325.563L951.539 326.403C951.478 328.194 951 329.858 950.107 331.397C949.271 332.881 947.909 334.179 946.022 335.29C944.192 336.348 941.783 337.161 938.794 337.731C935.86 338.302 932.267 338.514 928.013 338.368L889.816 337.051ZM923.286 309.712C926.196 309.812 928.192 309.601 929.275 309.078C930.414 308.557 931.002 307.736 931.041 306.617L931.049 306.365C931.086 305.302 930.553 304.499 929.451 303.957C928.407 303.36 926.402 303.011 923.436 302.909L909.752 302.437L909.518 309.237L923.286 309.712ZM924.334 328.071C929.707 328.256 932.443 326.893 932.543 323.983L932.558 323.563C932.651 320.877 929.982 319.44 924.554 319.253L909.191 318.724L908.887 327.538L924.334 328.071Z" fill="white"/>
<path d="M540.971 432.262L522.995 434.416C520.575 434.725 518.823 435.141 517.74 435.664C516.658 436.187 516.094 437.092 516.05 438.38L516.047 438.464C516.026 439.079 516.117 439.699 516.319 440.322C516.578 440.947 517.006 441.522 517.605 442.047C518.261 442.518 519.087 442.939 520.083 443.309C521.136 443.626 522.475 443.812 524.098 443.868C526.616 443.955 528.893 443.725 530.929 443.179C532.966 442.633 534.7 441.88 536.134 440.921C537.624 439.964 538.783 438.855 539.611 437.595C540.439 436.334 540.876 435.033 540.922 433.69L540.971 432.262ZM540.949 447.559C540.424 448.157 539.644 448.83 538.61 449.579C537.575 450.328 536.205 451.065 534.499 451.791C532.851 452.463 530.815 453.009 528.391 453.43C526.023 453.852 523.16 454.006 519.802 453.89L518.711 453.852C514.905 453.721 511.672 453.218 509.013 452.341C506.411 451.411 504.294 450.246 502.662 448.845C501.031 447.388 499.854 445.778 499.13 444.016C498.464 442.2 498.165 440.313 498.232 438.354L498.253 437.766C498.395 433.625 499.958 430.541 502.942 428.514C505.982 426.49 510.898 425.286 517.691 424.904L538.409 423.685C539.477 423.61 540.212 423.411 540.615 423.089C541.076 422.712 541.32 422.16 541.345 421.433C541.358 421.041 541.261 420.617 541.052 420.162C540.9 419.708 540.438 419.3 539.666 418.937C538.896 418.519 537.731 418.17 536.172 417.892C534.612 417.615 532.461 417.428 529.719 417.334L529.299 417.319C526.501 417.223 524.311 417.344 522.731 417.681C521.15 418.019 519.959 418.454 519.156 418.987C518.411 419.466 517.917 419.981 517.674 420.533C517.486 421.087 517.358 421.559 517.289 421.948L499.911 421.35L499.917 421.182C499.951 420.174 500.072 419.114 500.279 418C500.487 416.831 500.89 415.696 501.489 414.596C502.143 413.498 503.075 412.465 504.285 411.498C505.497 410.475 507.096 409.606 509.082 408.89C511.125 408.12 513.638 407.562 516.62 407.217C519.603 406.815 523.194 406.687 527.391 406.831L532.009 406.991C538.557 407.216 543.662 407.841 547.325 408.863C551.044 409.888 553.802 411.16 555.599 412.679C557.397 414.141 558.491 415.748 558.879 417.498C559.267 419.249 559.433 420.936 559.377 422.559L558.781 439.852C558.757 440.524 558.878 441.088 559.142 441.546C559.465 441.949 560.102 442.167 561.053 442.2L563.488 442.284L563.065 454.541L547.87 454.017C546.079 453.955 544.53 453.397 543.221 452.344C541.969 451.292 541.211 449.697 540.949 447.559ZM619.264 457.738L618.763 472.262L600.042 471.616L600.543 457.093L598.024 457.006C591.644 456.786 586.352 455.876 582.149 454.274C577.948 452.616 574.57 450.623 572.017 448.293C569.522 445.91 567.762 443.328 566.737 440.547C565.768 437.768 565.328 435.091 565.417 432.517L565.446 431.677C565.546 428.767 566.232 425.933 567.504 423.175C568.777 420.361 570.767 417.908 573.473 415.816C576.236 413.67 579.74 411.998 583.984 410.799C588.283 409.603 593.512 409.11 599.668 409.323L602.186 409.409L602.739 393.375L621.46 394.02L620.907 410.055L623.426 410.141C629.526 410.352 634.652 411.201 638.803 412.689C643.01 414.178 646.392 416.06 648.947 418.333C651.558 420.609 653.403 423.166 654.482 426.005C655.619 428.789 656.138 431.609 656.039 434.463L655.999 435.638C655.91 438.213 655.231 440.851 653.961 443.553C652.691 446.255 650.702 448.708 647.992 450.912C645.284 453.06 641.778 454.816 637.472 456.181C633.169 457.489 627.939 458.037 621.782 457.825L619.264 457.738ZM600.962 444.92L601.773 421.414L600.094 421.356C595.001 421.181 591.156 422.169 588.561 424.321C586.021 426.475 584.692 429.259 584.575 432.673L584.563 433.008C584.453 436.198 585.592 438.927 587.979 441.195C590.366 443.462 594.135 444.685 599.283 444.862L600.962 444.92ZM620.494 422.059L619.683 445.565L621.362 445.623C624.273 445.724 626.717 445.528 628.695 445.036C630.675 444.487 632.242 443.729 633.396 442.76C634.608 441.737 635.461 440.562 635.955 439.234C636.507 437.852 636.81 436.378 636.864 434.811L636.876 434.475C636.933 432.796 636.736 431.22 636.282 429.748C635.884 428.277 635.115 427.018 633.975 425.97C632.836 424.866 631.298 423.973 629.36 423.29C627.479 422.608 625.083 422.218 622.173 422.117L620.494 422.059ZM662.099 412.735L680.82 413.38L679.839 441.839L709.195 414.358L728.336 415.018L726.779 460.183L708.058 459.538L709.039 431.079L679.683 458.56L660.543 457.9L662.099 412.735ZM735.72 415.272L754.44 415.918L753.312 448.658L769.43 449.214L770.559 416.473L789.28 417.118L788.151 449.859L804.27 450.414L805.398 417.674L824.119 418.319L822.562 463.484L734.163 460.438L735.72 415.272Z" fill="white"/>
</g>
<defs>
<clipPath id="clip0_16_3">
<rect width="1920" height="1080" fill="white"/>
</clipPath>
</defs>
</svg>
